<svg style="display:none">
    <symbol id="bigtomato" viewBox="0 0 115 115" fill="none" xmlns="http://www.w3.org/2000/svg">
        <g clip-path="url(#clip0_16_527)">
            <path d="M111.881 66.9398C111.881 96.9041 87.5898 115 57.6255 115C27.6603 115 3.36914 90.7089 3.36914 60.7437C3.36914 30.7794 28.4192 12.3571 58.3836 12.3571C88.3488 12.3571 111.881 36.9746 111.881 66.9398Z" fill="#DC3E22"/>
            <path d="M81.185 36.2439C78.5489 33.5598 74.284 31.0639 71.1081 30.3341C72.8534 28.7865 73.2046 28.7355 75.391 27.6522C80.9932 24.8793 89.2913 24.624 89.2913 24.624C89.2913 24.624 79.497 19.5621 72.3358 19.8797C70.5127 19.9599 68.5898 20.604 66.7346 21.5166C67.7807 20.0403 68.7719 18.5725 69.4056 17.4698C71.3442 14.0981 73.3822 9.85057 73.3822 9.85057C73.3822 9.85057 65.8733 10.2515 62.3903 14.42C61.0676 16.0036 60.0691 18.0155 59.3384 19.9029C58.0406 18.4121 56.6082 17.0845 55.1756 16.0481C48.0129 10.8645 36.5683 11.986 36.5683 11.986C36.5683 11.986 45.2138 16.8902 49.1036 21.7826C50.6224 23.6932 52.1638 24.5767 53.0852 26.7189C49.9003 26.0293 42.7142 26.265 39.1867 27.5729C30.1222 30.9348 26.2164 44.4617 26.2164 44.4617C26.2164 44.4617 35.0618 38.3648 47.0968 34.0876C49.743 33.1475 52.5406 32.8983 54.9789 32.9411C53.872 34.6654 52.6628 36.9045 51.7478 39.5446C49.5215 45.9724 52.4634 61.2701 52.4634 61.2701C52.4634 61.2701 58.9082 52.2234 61.5343 44.8951C62.8821 41.1335 63.2157 37.3568 63.2231 34.5698C65.6131 35.6302 68.4281 37.1793 70.5319 38.5193C81.3038 45.3826 86.4576 57.9127 86.4576 57.9127C86.4576 57.9127 87.9585 43.1422 81.185 36.2439Z" fill="#899441"/>
            <path d="M58.9395 29.6396C58.9053 29.6396 58.8711 29.6388 58.8368 29.6379C56.7066 29.5826 55.0246 27.8121 55.0764 25.6835C55.0808 25.4993 55.2668 12.5386 48.067 6.90318C46.3877 5.58886 46.0911 3.16203 47.4054 1.48184C48.7206 -0.197465 51.1475 -0.49402 52.8268 0.821175C63.1229 8.87817 62.8158 25.1887 62.7982 25.8792C62.7429 27.9761 61.025 29.6396 58.9395 29.6396Z" fill="#A8B64F"/>
            <circle cx="41.5" cy="64.5" r="2.5" fill="black"/>
            <g filter="url(#filter0_f_16_527)">
                <circle cx="29.5" cy="75.5" r="5.5" fill="#EA8979"/>
            </g>
            <g filter="url(#filter1_f_16_527)">
                <circle cx="85.5" cy="75.5" r="5.5" fill="#EA8979"/>
            </g>
            <circle cx="73.5" cy="64.5" r="2.5" fill="black"/>
            <path d="M46 78C50 82 64.5 83 68.5 78" stroke="black"/>
        </g>
        <defs>
            <filter id="filter0_f_16_527" x="20" y="66" width="19" height="19" filterUnits="userSpaceOnUse" color-interpolation-filters="sRGB">
                <feFlood flood-opacity="0" result="BackgroundImageFix"/>
                <feBlend mode="normal" in="SourceGraphic" in2="BackgroundImageFix" result="shape"/>
                <feGaussianBlur stdDeviation="2" result="effect1_foregroundBlur_16_527"/>
            </filter>
            <filter id="filter1_f_16_527" x="76" y="66" width="19" height="19" filterUnits="userSpaceOnUse" color-interpolation-filters="sRGB">
                <feFlood flood-opacity="0" result="BackgroundImageFix"/>
                <feBlend mode="normal" in="SourceGraphic" in2="BackgroundImageFix" result="shape"/>
                <feGaussianBlur stdDeviation="2" result="effect1_foregroundBlur_16_527"/>
            </filter>
            <clipPath id="clip0_16_527">
                <rect width="115" height="115" fill="white"/>
            </clipPath>
        </defs>
    </symbol>
    <symbol id="tomato" viewBox="0 0 81 81" fill="none" xmlns="http://www.w3.org/2000/svg">
        <g clip-path="url(#clip0_16_413)">
            <path d="M78.8031 47.4452C78.8031 68.5505 61.6937 81.2964 40.5884 81.2964C19.4825 81.2964 2.37305 64.187 2.37305 43.081C2.37305 21.9757 20.017 9 41.1223 9C62.2283 9 78.8031 26.3393 78.8031 47.4452Z" fill="#DC3E22"/>
            <path d="M57.1821 25.5283C55.3254 23.6378 52.3214 21.8798 50.0845 21.3658C51.3138 20.2757 51.5612 20.2398 53.1011 19.4768C57.0471 17.5237 62.8917 17.3439 62.8917 17.3439C62.8917 17.3439 55.9932 13.7785 50.9492 14.0023C49.6651 14.0587 48.3107 14.5124 47.004 15.1552C47.7408 14.1154 48.439 13.0815 48.8853 12.3048C50.2508 9.92999 51.6862 6.93824 51.6862 6.93824C51.6862 6.93824 46.3974 7.22064 43.9441 10.1567C43.0125 11.2721 42.3092 12.6892 41.7945 14.0186C40.8804 12.9685 39.8715 12.0334 38.8625 11.3035C33.8174 7.65243 25.7565 8.44232 25.7565 8.44232C25.7565 8.44232 31.8459 11.8966 34.5857 15.3426C35.6554 16.6883 36.7411 17.3106 37.3901 18.8194C35.1468 18.3337 30.0853 18.4997 27.6007 19.4209C21.2162 21.7889 18.4651 31.3165 18.4651 31.3165C18.4651 31.3165 24.6953 27.0222 33.1722 24.0095C35.036 23.3474 37.0065 23.1719 38.7239 23.202C37.9443 24.4165 37.0926 25.9936 36.4481 27.8532C34.88 32.3806 36.9521 43.1555 36.9521 43.1555C36.9521 43.1555 41.4915 36.7835 43.3412 31.6218C44.2905 28.9723 44.5255 26.3122 44.5307 24.3491C46.2141 25.0961 48.1968 26.1872 49.6786 27.131C57.2658 31.9651 60.8959 40.7907 60.8959 40.7907C60.8959 40.7907 61.9531 30.3871 57.1821 25.5283Z" fill="#899441"/>
            <path d="M41.5144 20.8766C41.4903 20.8766 41.4662 20.876 41.4421 20.8754C39.9416 20.8364 38.757 19.5894 38.7934 18.0901C38.7965 17.9604 38.9275 8.83154 33.8564 4.86224C32.6735 3.9365 32.4647 2.22717 33.3904 1.04373C34.3168 -0.139084 36.0261 -0.347962 37.2089 0.578393C44.4609 6.25332 44.2446 17.7416 44.2323 18.2279C44.1933 19.7049 42.9833 20.8766 41.5144 20.8766Z" fill="#A8B64F"/>
        </g>
        <defs>
            <clipPath id="clip0_16_413">
                <rect width="81" height="81" fill="white"/>
            </clipPath>
        </defs>
    </symbol>
    <symbol id="topmenu"  xmlns="http://www.w3.org/2000/svg"  viewBox="0 0 50 50">
        <path d="M 0 7.5 L 0 12.5 L 50 12.5 L 50 7.5 L 0 7.5 z M 0 22.5 L 0 27.5 L 50 27.5 L 50 22.5 L 0 22.5 z M 0 37.5 L 0 42.5 L 50 42.5 L 50 37.5 L 0 37.5 z"/>
    </symbol>
    <symbol id="info" xmlns="http://www.w3.org/2000/svg"  viewBox="0 0 128 128" >
        <path d="M 64 6 C 32 6 6 32 6 64 C 6 96 32 122 64 122 C 96 122 122 96 122 64 C 122 32 96 6 64 6 z M 64 12 C 92.7 12 116 35.3 116 64 C 116 92.7 92.7 116 64 116 C 35.3 116 12 92.7 12 64 C 12 35.3 35.3 12 64 12 z M 64 30 A 9 9 0 0 0 64 48 A 9 9 0 0 0 64 30 z M 64 59 C 59 59 55 63 55 68 L 55 92 C 55 97 59 101 64 101 C 69 101 73 97 73 92 L 73 68 C 73 63 69 59 64 59 z"/>
    </symbol>
    <symbol id="stat" viewBox="0 0 16 16" xmlns="http://www.w3.org/2000/svg">
        <path id="circle1" d="M6 16H10V0H6V16ZM0 16H4V8H0V16ZM12 5V16H16V5H12Z" />
    </symbol>
    <symbol id="timer" viewBox="0 0 24 24" xmlns="http://www.w3.org/2000/svg">
        <path id="circle1" d="M17 19.211a3 3 0 0 0-.504-1.664l-3.328-4.992a1 1 0 0 1 0-1.11l3.328-4.992A3 3 0 0 0 17 4.789V3a1 1 0 0 1 2 0v1.789a5 5 0 0 1-.84 2.773L15.202 12l2.958 4.438A5 5 0 0 1 19 19.21V21a1 1 0 0 1-1 1H6a1 1 0 0 1-1-1v-1.789a5 5 0 0 1 .84-2.773L8.798 12 5.84 7.562A5 5 0 0 1 5 4.79V3a1 1 0 0 1 1-1h8a1 1 0 0 1 0 2H7v.789a3 3 0 0 0 .504 1.664l3.328 4.992a1 1 0 0 1 0 1.11l-3.328 4.992A3 3 0 0 0 7 19.211V20h10v-.789zM10 19a1 1 0 0 1 0-2h4a1 1 0 0 1 0 2h-4z" fill-rule="nonzero"/>
    </symbol>
    <symbol id="preferences" xmlns="http://www.w3.org/2000/svg">
        <path d="M3.549.09a3.5 3.5 0 00-1.143.216l1.885 1.88c.387.386.387 1 0 1.387l-.711.708a.98.98 0 01-1.39 0L.303 2.401a3.473 3.473 0 00-.216 1.14 3.456 3.456 0 003.46 3.452 3.5 3.5 0 001.144-.216l1.174 1.171a2.472 2.465 0 01.062 0l2.07-2.064-1.205-1.202a3.46 3.46 0 00.217-1.14A3.456 3.456 0 003.549.09zm6.55 7.89l-2.07 2.064a2.472 2.465 0 01.031.092l1.144 1.14a3.474 3.474 0 00-.217 1.14 3.456 3.456 0 003.461 3.452c.434 0 .854-.102 1.236-.247l-2.008-2.003a1.01 1.01 0 010-1.417l.68-.678a1.03 1.03 0 01.71-.308c.253 0 .517.115.71.308l1.947 1.941c.105-.33.186-.683.186-1.047a3.456 3.456 0 00-3.46-3.452 3.5 3.5 0 00-1.144.216L10.1 7.979z" overflow="visible" style="text-decoration-line:none;text-indent:0;text-transform:none"/>
        <path d="M13.858 0l-1.542 1.438c-.452.42-.53 1.148-.267 1.706L6.161 9.14a1.492 1.488 0 00-.031 0 1.492 1.488 0 00-.84-.148 1.492 1.488 0 00-.867.44L.477 13.43a1.494 1.49 0 102.13 2.09l3.946-3.997a1.492 1.488 0 00.297-1.738l5.888-5.965c.558.249 1.273.147 1.707-.292l1.417-1.56L13.858 0z" overflow="visible" style="text-decoration-line:none;text-indent:0;text-transform:none"/>
    </symbol>
    <symbol id="lamp" viewBox="0 0 24 24" xmlns="http://www.w3.org/2000/svg">
        <path d="M14 14.197a1 1 0 0 1 .5-.865 5 5 0 1 0-4.999 0 1 1 0 1 1-1.002 1.73 7 7 0 1 1 7.5-.318l.001.756a1 1 0 0 1-.684.949l-6 2a1 1 0 1 1-.632-1.898L14 14.78v-.582zm.684 3.854a1 1 0 1 1 .632 1.898l-6 2a1 1 0 1 1-.632-1.898l6-2z" fill-rule="nonzero"/>
    </symbol>
    <symbol id="focus" viewBox="0 0 115 115" xmlns="http://www.w3.org/2000/svg">
        <path id="circle1" d="M57.3158 111.632C87.3136 111.632 111.632 87.3136 111.632 57.3158C111.632 27.318 87.3136 3 57.3158 3C27.318 3 3 27.318 3 57.3158C3 87.3136 27.318 111.632 57.3158 111.632Z" stroke-width="5" stroke-linecap="round" stroke-linejoin="round"/>
        <path id="circle2" d="M57.5 95C78.2107 95 95 78.2107 95 57.5C95 36.7893 78.2107 20 57.5 20C36.7893 20 20 36.7893 20 57.5C20 78.2107 36.7893 95 57.5 95Z" stroke-width="5" stroke-linecap="round" stroke-linejoin="round"/>
        <path id="circle3" d="M57.5 78C68.8218 78 78 68.8218 78 57.5C78 46.1782 68.8218 37 57.5 37C46.1782 37 37 46.1782 37 57.5C37 68.8218 46.1782 78 57.5 78Z" stroke-width="5" stroke-linecap="round" stroke-linejoin="round"/>
    </symbol>
    <symbol id="pause" viewBox="0 0 115 115" xmlns="http://www.w3.org/2000/svg">
        <path id="round" d="M57.3158 111.632C87.3136 111.632 111.632 87.3136 111.632 57.3158C111.632 27.318 87.3136 3 57.3158 3C27.318 3 3 27.318 3 57.3158C3 87.3136 27.318 111.632 57.3158 111.632Z" stroke-width="5" stroke-linecap="round" stroke-linejoin="round"/>
        <path id="clock" d="M57.3154 30.1579V57.3158L70.8944 70.8947" stroke-width="5" stroke-linecap="round" stroke-linejoin="round"/>
    </symbol>
    <symbol id="stop" viewBox="0 0 115 115" xmlns="http://www.w3.org/2000/svg">
        <path id="circle4" d="M57.3158 111.632C87.3136 111.632 111.632 87.3136 111.632 57.3158C111.632 27.318 87.3136 3 57.3158 3C27.318 3 3 27.318 3 57.3158C3 87.3136 27.318 111.632 57.3158 111.632Z" stroke-width="5" stroke-linecap="round" stroke-linejoin="round"/>
        <path id="circle4" d="M21 20L95 94" stroke-width="5" stroke-linecap="round" stroke-linejoin="round"/>
    </symbol>
    <symbol id="check" fill="none" viewBox="0 0 16 10" xmlns="http://www.w3.org/2000/svg">
        <path d="M15 1L8 8L1 1" stroke-width="2"/>
    </symbol>
    <symbol id="menu" viewBox="0 0 26 6" fill="none" xmlns="http://www.w3.org/2000/svg">
        <circle cx="3" cy="3" r="3" fill="#C4C4C4"/>
        <circle cx="13" cy="3" r="3" fill="#C4C4C4"/>
        <circle cx="23" cy="3" r="3" fill="#C4C4C4"/>
    </symbol>
    <symbol id="plus" viewBox="0 0 16 16" fill="none" xmlns="http://www.w3.org/2000/svg">
        <path d="M9.27559 9.13215V16H6.72441V9.13215H0V6.70291H6.72441V0H9.27559V6.70291H16V9.13215H9.27559Z" fill="white"/>
    </symbol>
    <symbol id="close" viewBox="0 0 15 14" fill="none" xmlns="http://www.w3.org/2000/svg">
        <path d="M7.9115 8.80583L2.84406 13.9567L0.961665 12.0433L6.02911 6.89245L1.0675 1.84914L2.85992 0.0272091L7.82153 5.07052L12.7673 0.0433371L14.6497 1.95672L9.70392 6.9839L14.6655 12.0272L12.8731 13.8491L7.9115 8.80583Z" fill="#C4C4C4"/>
    </symbol>
    <symbol id="increase" viewBox="0 0 18 18" fill="none" xmlns="http://www.w3.org/2000/svg">
        <path d="M9.75 5.25H8.25V8.25H5.25V9.75H8.25V12.75H9.75V9.75H12.75V8.25H9.75V5.25ZM9 1.5C4.8675 1.5 1.5 4.8675 1.5 9C1.5 13.1325 4.8675 16.5 9 16.5C13.1325 16.5 16.5 13.1325 16.5 9C16.5 4.8675 13.1325 1.5 9 1.5ZM9 15C5.6925 15 3 12.3075 3 9C3 5.6925 5.6925 3 9 3C12.3075 3 15 5.6925 15 9C15 12.3075 12.3075 15 9 15Z" fill="#A8B64F"/>
    </symbol>
    <symbol id="decrease" viewBox="0 0 18 18" fill="none" xmlns="http://www.w3.org/2000/svg">
        <path d="M9 1.5C4.8675 1.5 1.5 4.8675 1.5 9C1.5 13.1325 4.8675 16.5 9 16.5C13.1325 16.5 16.5 13.1325 16.5 9C16.5 4.8675 13.1325 1.5 9 1.5ZM9 15C5.6925 15 3 12.3075 3 9C3 5.6925 5.6925 3 9 3C12.3075 3 15 5.6925 15 9C15 12.3075 12.3075 15 9 15Z" fill="#A8B64F"/>
        <path d="M5.25 8.25H8.25H9.75H12.75V9.75H9.75H8.25H5.25V8.25Z" fill="#A8B64F"/>
    </symbol>
    <symbol id="edit" viewBox="0 0 18 18" fill="none" xmlns="http://www.w3.org/2000/svg">
        <path d="M10.545 6.765L11.235 7.455L4.44 14.25H3.75V13.56L10.545 6.765ZM13.245 2.25C13.0575 2.25 12.8625 2.325 12.72 2.4675L11.3475 3.84L14.16 6.6525L15.5325 5.28C15.825 4.9875 15.825 4.515 15.5325 4.2225L13.7775 2.4675C13.6275 2.3175 13.44 2.25 13.245 2.25ZM10.545 4.6425L2.25 12.9375V15.75H5.0625L13.3575 7.455L10.545 4.6425Z" fill="#A8B64F"/>
    </symbol>
    <symbol id="delete" viewBox="0 0 18 18" fill="none" xmlns="http://www.w3.org/2000/svg">
        <path d="M12 6.75V14.25H6V6.75H12ZM10.875 2.25H7.125L6.375 3H3.75V4.5H14.25V3H11.625L10.875 2.25ZM13.5 5.25H4.5V14.25C4.5 15.075 5.175 15.75 6 15.75H12C12.825 15.75 13.5 15.075 13.5 14.25V5.25Z" fill="#A8B64F"/>
    </symbol>
    <symbol id="ok"  xmlns="http://www.w3.org/2000/svg"  viewBox="0 0 24 24" >
        <path d="M 19.980469 5.9902344 A 1.0001 1.0001 0 0 0 19.292969 6.2929688 L 9 16.585938 L 5.7070312 13.292969 A 1.0001 1.0001 0 1 0 4.2929688 14.707031 L 8.2929688 18.707031 A 1.0001 1.0001 0 0 0 9.7070312 18.707031 L 20.707031 7.7070312 A 1.0001 1.0001 0 0 0 19.980469 5.9902344 z"/>
    </symbol>
    <symbol id="pumpkin" xmlns="http://www.w3.org/2000/svg" viewBox="0 0 512.002 512.002" style="enable-background:new 0 0 512.002 512.002;" xml:space="preserve">
        <path style="fill:#1b7a1b;" d="M268.34,94.228c-5.352,1.766-28.758,23.443-31.433,62.193l32.725-4.914
            c-7.116-24.754,11.539-44.356,12.631-50.217C278.643,96.303,271.525,94.137,268.34,94.228z"/>
        <path style="fill:#43a843;" d="M268.523,96.375c0,0,9.264,1.875,10.321,4.295c1.074,2.42-9.483,12.595-11.94,25.081
            c-2.457,12.486-2.675,16.363-2.675,16.363l-20.13-3.786c-3.859-0.728,13.287-36.73,24.426-41.972v0.018H268.523z"/>
        <path style="fill:#74a2d6;" d="M153.418,380.151c-104.457-15.962-90.442-231.192,4.623-232.448
            c30.123-18.128,58.025-9.246,64.087-5.424c15.854-9.647,49.526-9.647,65.397,0c6.061-3.823,33.981-12.705,64.087,5.424
            c95.101-6.771,115.014,230.755,4.623,232.448c-3.149,2.858-36.239,17.564-57.68,3.349c-19.967,8.736-67.49,8.736-87.457,0
            C189.657,397.715,156.567,382.99,153.418,380.151z"/>
        <path style="fill:#2a5885;" d="M351.611,147.721c54.822,71.713,36.785,174.495,4.623,232.448
            C397.642,346.569,421.777,204.2,351.611,147.721z M158.042,147.721c-60.664,68.091-40.935,170.982-4.623,232.448
            C109.062,343.876,82.961,201.178,158.042,147.721z M222.127,142.297c-41.553,67.49-31.761,179.282-11.03,241.22
            C179.719,346.606,164.139,194.917,222.127,142.297z M287.525,142.297c40.989,68.837,31.252,180.428,11.03,241.22
            C329.933,346.606,345.514,194.917,287.525,142.297z"/>
        <path style="fill:#000000;" d="M256,285.104l-12.34,28.503l-18.784-27.83l-18.037,24.863l-11.849-28.158l-16.799,18.529
            l-17.182-25.191l-9.665,16.582l-25.755-29.831l24.681,70.256l12.886-13.924l12.886,24.535l13.414-24.535l19.312,33.144l19.857-26.52
            l16.108,25.846l11.266-17.237l11.266,17.237l16.108-25.846l19.857,26.52l19.311-33.144l13.414,24.535l12.886-24.535l12.886,13.924
            l24.681-70.256l-25.755,29.831l-9.665-16.582l-17.182,25.191l-16.796-18.529l-11.849,28.157l-18.037-24.863l-18.784,27.83
            L256,285.104z"/>
        <g>
            <path style="fill:#2a5885;" d="M256,285.104l-12.34,28.503l-18.784-27.83l-18.037,24.863l-11.849-28.158l-16.799,18.529
                l-17.182-25.191l-9.665,16.582l-25.755-29.831l6.917,19.675l18.838,18.693l9.665-14.197l17.182,21.587l16.799-15.872l11.849,24.116
                l18.037-21.296l18.784,23.843L256,294.695l12.34,24.426l18.784-23.843l18.037,21.296l11.849-24.116l16.799,15.872l17.182-21.587
                l9.665,14.197l18.838-18.693l6.917-19.675l-25.755,29.831l-9.665-16.582l-17.182,25.191l-16.799-18.529l-11.849,28.157
                l-18.037-24.863l-18.784,27.83L256,285.104z"/>
            <path style="fill:#2a5885;" d="M247.136,225.531l-108.352-44.465l43.1,88.949L247.136,225.531z"/>
        </g>
        <path style="fill:#000000;" d="M237.508,229.226l-91.753-38.714l37.694,76.718L237.508,229.226z"/>
        <path style="fill:#2a5885;" d="M264.846,225.531l108.352-44.465l-43.1,88.949L264.846,225.531z"/>
        <path style="fill:#000000;" d="M274.475,229.226l91.753-38.714l-37.694,76.718L274.475,229.226z"/>
    </symbol>
</svg>